<svg xmlns="http://www.w3.org/2000/svg" xmlns:xlink="http://www.w3.org/1999/xlink" viewBox="0 0 129.71 178.65"><defs><clipPath id="clip-path"><path d="M108.64,90V44.38S109.15,8,58.63,8s-50,36.41-50,36.41V54.63h0v45.64s-.51,36.42,50,36.42,50-36.42,50-36.42Z" fill="none"/></clipPath></defs><title>Asset 6</title><g id="Layer_2" data-name="Layer 2"><g id="OBJECTS"><path d="M108.64,90V44.38S109.15,8,58.63,8s-50,36.41-50,36.41V54.63h0v45.64s-.51,36.42,50,36.42,50-36.42,50-36.42Z" fill="#a28294"/><g clip-path="url(#clip-path)"><path d="M119.87,47.74A38,38,0,0,1,87,61.47C65.11,59.8,33.32,21.35,4.39,36c0,0-3.39-36,57-36C100.17,0,124.09,10.28,119.87,47.74Z" fill="#683761"/><path d="M129.39,87.57s-8.56-5-23.08-3.12-12.2,19.64-33.4,19.64-26.36,0-38.45,9.59c0,0,7.38,16.78,41.94,20.77S132.63,124.52,129.39,87.57Z" fill="#e68684"/><path d="M.32,104.5S7.93,91.07,22.44,92.74c22.2,2.54,13.15,25.33,34.35,25.33s26.37,0,38.45,7.88c0,0-7.37,13.79-41.93,17.07S-2.93,134.86.32,104.5Z" fill="#f5efdb"/><path d="M91.66,62.5s-9.72,1.22-13,4.94S73,84.12,73,84.12l2.3-3.32,1.09-6.32,1.34,5L84.06,77l-1.65-6L86,75.14l2.17-1.43-.8-4.5,2.55,4.38,3.46-4.78Z" fill="#fab217"/><path d="M91.73,62.77c-.72-.29-12.2-7.07-15.77-7s-13.26,3.9-13.26,3.9l3.8.52,3.68-1-.94,1.36,4.08,1.67,2.38-.79-.61,2.63,8.43,1.35,1.13-2.77.36,3Z" fill="#fab217"/><path d="M93,64.24s8.14,0,11.27,3.27S110.92,83,110.92,83l-2.28-3-1.64-6-.51,5L101,77.45l.65-6-2.42,4.45-2-1.14.12-4.46-1.58,4.56-3.4-4.24Z" fill="#fab217"/><path d="M88.3,62.84S91.17,52,95,49s15.26-3.31,15.26-3.31l-3.26,2-5.58,0,4,2.46L102.07,57l-4.81-3,2.86,4.8-1.63,2.19-3.67-1.76,3.24,3.73-4.75,4.14Z" fill="#fab217"/><path d="M91.62,62.91c.74-.25,12.67-6.2,16.21-5.84s13,4.81,13,4.81l-3.82.25-3.61-1.24.85,1.43L110,63.69l-2.33-.95.43,2.67-8.5.76-.94-2.84-.56,2.94Z" fill="#fab217"/><path d="M91.42,65.56s4.9,65,5.44,73.31l4.44.09L94.5,64.22Z" fill="#fab217"/><path d="M70.92,108s-10.53.81-14,4-7,15-7,15l2.48-2.87,1.65-5.78.74,4.79L61,121.44l-.93-5.78L63,119.88l2.17-1.11-.3-4.28,1.94,4.35,3.88-7Z" fill="#fcb82e"/><path d="M74.69,106.36c-.7-.22-12-5.53-15.33-5.11s-12,4.8-12,4.8l3.59.15L54.27,105l-.77,1.36,4,1.19,2.15-.94-.34,2.51,8,.52.81-2.68.6,2.74Z" fill="#fcb82e"/><path d="M73,109s9.19.11,12.63,3.23,7.07,14.94,7.07,14.94l-2.49-2.85-1.69-5.78-.71,4.8-6.2-1.62.9-5.79-2.86,4.24-2.17-1.1.27-4.28-1.91,4.36-5.2-9.27Z" fill="#fcb82e"/><path d="M68.67,109.65s3.18-13.58,7-16,14.55-1.56,14.55-1.56L87,93.59l-5.21-.51,3.48,2.69-3.75,6-4.18-3.29,2.18,4.76-1.73,1.88-3.25-2,2.65,3.79-4.61,5Z" fill="#fcb82e"/><path d="M70.63,106.19c.71-.16,12.42-4.52,15.69-3.82s11.6,5.78,11.6,5.78L94.33,108l-3.24-1.52.65,1.41-4,.87-2.07-1.12.13,2.53-8-.14-.59-2.74L76.35,110Z" fill="#fcb82e"/><path d="M69.76,109.21s-1.84,61.11-2.16,68.88l4.93.56.8-70.35Z" fill="#fcb82e"/><path d="M88.46,92.16s-9.1.06-12.52,3.13S68.86,110,68.86,110l2.48-2.8,1.7-5.71.69,4.75,6.14-1.57L79,99l2.81,4.21L84,102.1l-.24-4.24,1.87,4.32,3.71-4Z" fill="#683761"/><path d="M88.5,92.42c-.63-.35-10.48-7.85-13.77-8.13s-12.65,2.14-12.65,2.14l3.44.89,3.5-.51L68,88l3.58,2,2.28-.47L73,91.84,80.63,94,82,91.58v2.77Z" fill="#683761"/><path d="M89.72,93.53s9,1,12.13,4.43,5.48,15.41,5.48,15.41l-2.17-3.05-1.09-5.85-1.18,4.65L97,106.91l1.46-5.61-3.24,3.89-2-1.3.69-4.18-2.32,4.1-3.26-4.4Z" fill="#683761"/><path d="M85.32,92.1s3.83-9.64,7.65-12,14.42-1.39,14.42-1.39l-3.22,1.47L99,79.61l3.41,2.7-3.77,5.88-4.1-3.3,2.1,4.74-1.73,1.84-3.2-2,2.59,3.78-4.84,3.3Z" fill="#683761"/><path d="M88.38,92.53c.7-.15,12.35-4.33,15.58-3.61s11.41,5.86,11.41,5.86l-3.55-.19-3.19-1.54.63,1.4-4,.82-2-1.13.11,2.5-7.92-.23-.56-2.72L94,96.34Z" fill="#683761"/><path d="M87.91,95s-2.61,60.47-3,68.15l4.08.57,1.91-69.61Z" fill="#683761"/><path d="M54.07,117s-9,1.6-11.82,5.21S37.78,138,37.78,138l2-3.18.71-5.92,1.48,4.57,5.79-2.59-1.83-5.5L49.39,129l1.94-1.43-1-4.13L53,127.4l3-4.6Z" fill="#683761"/><path d="M54.14,117.28c-.68-.24-11.65-6-15-5.68s-12.1,4.26-12.1,4.26l3.55.3,3.36-1.1-.81,1.31,3.86,1.34,2.18-.84-.44,2.47,7.87.83.92-2.61.47,2.73Z" fill="#683761"/><path d="M55.54,118.17s9.09-.53,12.7,2.31,8,14.26,8,14.26L73.6,132.1l-2.06-5.59-.38,4.79-6.23-1.17.49-5.78-2.53,4.39-2.22-.94,0-4.24L59.05,128l-4-3.77Z" fill="#683761"/><path d="M51,117.51s2.14-10.15,5.5-13.13,14-3.81,14-3.81l-2.92,2-5.17.32L66.17,105l-2.73,6.43-4.6-2.56,2.88,4.31-1.4,2.11-3.49-1.45L60,117.1l-4.21,4.07Z" fill="#683761"/><path d="M54.05,117.41c.67-.26,11.44-6.36,14.74-6.2S81,115.05,81,115.05l-3.53.41-3.4-1,.85,1.29-3.81,1.48-2.2-.77.53,2.45L61.62,120l-1-2.58-.38,2.75Z" fill="#683761"/><path d="M53.94,119.39s4.41,32.31,4.89,36.43l4.1-.29-6.15-37Z" fill="#683761"/></g><text transform="translate(17.5 56.25)" font-size="28.31" fill="#f5efdb" font-family="Gilroy-ExtraBold, Gilroy ExtraBold" font-weight="800">L<tspan x="13.36" y="0" letter-spacing="0.02em">E</tspan><tspan x="27.74" y="0" letter-spacing="0.03em">T</tspan><tspan x="42.78" y="0" letter-spacing="-0.01em">’</tspan><tspan x="48.41" y="0">S</tspan></text><text transform="translate(17.5 79.36)" font-size="28.31" fill="#f5efdb" font-family="Nickainley-Normal, Nickainley Normal"><tspan letter-spacing="-0.04em">T</tspan><tspan x="12.8" y="0" letter-spacing="-0.01em">r</tspan><tspan x="21.91" y="0" letter-spacing="-0.01em">a</tspan><tspan x="35.33" y="0" letter-spacing="-0.01em">v</tspan><tspan x="48.67" y="0">el</tspan></text></g></g></svg>